<?xml version="1.0" standalone="no"?>
<!DOCTYPE svg PUBLIC "-//W3C//DTD SVG 20010904//EN"
 "http://www.w3.org/TR/2001/REC-SVG-20010904/DTD/svg10.dtd">
<svg version="1.0" xmlns="http://www.w3.org/2000/svg"
 width="900.000000pt" height="195.000000pt" viewBox="0 0 900.000000 195.000000"
 preserveAspectRatio="xMidYMid meet">
<metadata>
Created by potrace 1.10, written by Peter Selinger 2001-2011
</metadata>
<g transform="translate(0.000000,195.000000) scale(0.100000,-0.100000)"
fill="#444444" stroke="none">
<path d="M605 1858 c-3 -7 -4 -362 -3 -788 l3 -775 75 0 75 0 3 80 c2 44 7 84
11 88 5 5 36 -18 69 -51 95 -95 201 -135 357 -136 117 0 202 24 294 83 106 69
177 161 224 296 28 82 30 283 2 365 -43 131 -113 228 -212 297 -85 59 -147 81
-250 89 -186 13 -319 -30 -418 -138 -30 -33 -60 -56 -65 -53 -6 4 -10 121 -10
319 0 229 -3 315 -12 324 -16 16 -137 16 -143 0z m665 -597 c85 -22 116 -39
183 -101 92 -84 127 -171 127 -315 0 -143 -31 -225 -120 -314 -55 -55 -87 -74
-175 -102 -191 -61 -407 35 -491 218 -25 53 -27 69 -28 193 -1 140 0 144 52
249 19 38 98 112 145 136 47 24 156 53 202 53 22 1 69 -7 105 -17z"/>
<path d="M3145 1411 c-11 -5 -35 -10 -53 -10 -47 -1 -174 -66 -233 -118 -94
-85 -153 -199 -175 -338 -13 -82 -13 -104 0 -186 8 -52 22 -114 30 -137 20
-53 72 -136 112 -178 34 -35 108 -94 120 -94 4 0 15 -6 23 -13 9 -7 41 -22 71
-32 78 -28 296 -28 361 -1 94 39 115 53 175 113 44 44 65 59 71 50 4 -6 7 -48
8 -92 l0 -80 60 -3 c32 -2 70 -1 82 3 l23 5 -2 548 -3 547 -80 0 -80 0 -1 -76
c-1 -119 -4 -121 -77 -47 -66 69 -147 115 -227 130 -73 14 -184 18 -205 9z
m222 -151 c104 -32 165 -76 215 -153 61 -92 70 -130 65 -274 -3 -135 -11 -164
-59 -240 -56 -86 -129 -135 -245 -164 -95 -23 -100 -23 -182 -3 -96 23 -147
50 -206 110 -142 141 -165 386 -53 560 95 148 293 218 465 164z"/>
<path d="M5615 1408 c-123 -20 -209 -65 -299 -155 -70 -69 -96 -110 -140 -217
-18 -44 -21 -71 -21 -206 0 -165 3 -179 65 -304 46 -90 218 -236 280 -236 9 0
21 -5 27 -11 32 -32 270 -28 363 5 130 47 250 136 250 186 0 27 -36 120 -46
120 -3 0 -34 -25 -67 -56 -36 -32 -93 -71 -137 -91 -71 -34 -80 -35 -185 -36
-104 0 -114 2 -175 32 -36 18 -84 51 -108 74 -48 47 -94 121 -86 141 5 14 121
62 209 86 17 5 55 18 85 30 30 12 69 25 86 30 18 4 37 11 44 15 7 4 26 11 44
15 17 5 56 18 86 30 30 12 69 25 85 30 40 11 93 29 130 45 17 7 38 16 48 19
22 7 23 71 1 123 -42 99 -64 133 -124 194 -70 71 -153 118 -230 130 -105 16
-128 16 -185 7z m227 -175 c55 -30 78 -50 114 -98 39 -50 42 -87 9 -93 -11 -2
-33 -10 -50 -16 -43 -18 -95 -37 -130 -46 -37 -10 -90 -28 -130 -45 -39 -15
-84 -31 -165 -56 -36 -11 -78 -27 -95 -34 -16 -8 -43 -16 -60 -17 -30 -3 -30
-2 -33 52 -5 87 48 198 131 276 93 86 145 104 284 99 65 -2 102 -9 125 -22z"/>
<path d="M6965 1411 c-11 -5 -34 -10 -51 -10 -68 -2 -228 -110 -263 -178 -7
-13 -20 -23 -31 -23 -18 0 -20 9 -22 98 l-3 97 -75 0 -75 0 0 -580 0 -580 63
-3 c38 -2 69 2 78 9 11 9 14 67 14 324 0 382 6 423 82 541 76 119 236 182 396
155 153 -26 225 -90 275 -247 15 -44 17 -103 17 -412 0 -406 -8 -372 84 -372
93 0 88 -26 83 390 -2 201 -9 391 -15 422 -33 179 -176 328 -345 359 -80 15
-190 20 -212 10z"/>
<path d="M2475 1400 c-22 -4 -56 -14 -76 -23 -43 -19 -159 -130 -159 -152 0
-14 -4 -17 -32 -19 -9 -1 -14 27 -18 94 l-5 95 -75 0 -75 0 0 -550 0 -550 75
0 75 0 6 325 c3 179 11 343 17 365 16 63 50 124 100 177 53 57 77 71 169 99
65 20 76 21 171 3 l32 -6 0 66 c0 54 -3 67 -19 76 -22 11 -124 11 -186 0z"/>
<path d="M8040 1401 c-64 -8 -83 -14 -166 -52 -61 -28 -131 -94 -154 -146 -27
-61 -27 -160 0 -212 35 -69 112 -130 220 -175 25 -10 59 -24 75 -31 17 -7 50
-21 75 -30 222 -86 288 -170 229 -292 -22 -46 -48 -64 -134 -95 -96 -34 -309
-20 -423 28 -50 21 -59 18 -71 -30 -21 -85 -18 -93 47 -111 149 -44 448 -48
557 -8 113 42 160 75 212 150 37 55 38 56 37 152 0 87 -2 100 -26 137 -45 70
-116 117 -281 188 -21 9 -46 16 -57 16 -10 0 -21 4 -24 9 -3 5 -17 12 -32 15
-14 4 -55 21 -91 37 -164 78 -166 234 -4 305 51 23 66 25 171 21 63 -2 148
-11 189 -21 41 -9 77 -13 82 -9 4 4 9 33 11 63 l3 55 -50 17 c-59 19 -295 31
-395 19z"/>
<path d="M4142 1378 c-6 -7 -12 -38 -14 -68 l-3 -55 280 -5 c154 -3 281 -7
283 -8 11 -10 -12 -52 -100 -185 -57 -85 -133 -201 -170 -258 -37 -57 -105
-158 -150 -224 -148 -217 -178 -264 -178 -280 0 -13 51 -15 429 -15 331 0 431
3 438 13 6 6 13 35 17 63 5 42 3 53 -10 58 -8 3 -144 6 -300 6 -244 0 -285 2
-290 15 -8 20 4 44 59 116 15 20 27 39 27 42 0 3 115 178 256 388 140 210 253
388 250 395 -8 20 -808 21 -824 2z"/>
</g>
</svg>
